<?xml version="1.0" encoding="UTF-8"?>
<!DOCTYPE svg PUBLIC "-//W3C//DTD SVG 1.1//EN" "http://www.w3.org/Graphics/SVG/1.1/DTD/svg11.dtd">
<!-- Creator: CorelDRAW -->
<svg xmlns="http://www.w3.org/2000/svg" xml:space="preserve" width="148mm" height="210mm" version="1.1" shape-rendering="geometricPrecision" text-rendering="geometricPrecision" image-rendering="optimizeQuality" fill-rule="evenodd" clip-rule="evenodd"
viewBox="0 0 14800 21000"
 xmlns:xlink="http://www.w3.org/1999/xlink"
 xmlns:xodm="http://www.corel.com/coreldraw/odm/2003">
 <g id="Capa_x0020_1">
  <metadata id="CorelCorpID_0Corel-Layer"/>
  <path fill="#1F2937" d="M4480.77 3695.7c-395.28,-83.22 -741.18,-483.29 -674.41,-991.88 56.72,-432 413.41,-749.96 882.75,-763.52 279.56,23.04 312.96,65.6 519.7,161.07 -26.7,-48.55 -46.12,-79.07 -72.81,-129.5 32.57,-37.47 57.31,-65.69 97.19,-96.97 56.09,-44 54.78,-34.19 96.96,-97.18 -231.79,-54 -183.64,-179.62 -474.93,-111.61 -178.53,41.68 -381.01,144.82 -527.09,21.63 -142.82,-120.42 -169.15,-266.8 -279.49,-400.07 -47.82,-57.76 -122.33,-100.14 -188.5,-152.14 -70.57,-55.46 -141.65,-146.34 -156.99,7.44 -30.49,305.73 33.2,428.18 -324.63,673.1 -313.97,214.9 -526.75,96.22 -571.24,448.02 -24.17,191.16 -96.11,371.52 -267.95,411.55 -83.1,-55.64 -75.27,-58.53 -121.34,-145.61 -376.11,0 -213.29,-12.67 -194.15,-242.68 -458.92,242.83 -271.45,368.4 -209.06,551.39 46.44,136.23 -22.61,117.13 -33.62,249.45 134.45,64.52 245.06,19.58 359.04,126.33l262.1 247.52c314.31,407.33 303.51,548.18 553.56,926.8 173.35,262.48 141.78,291.61 392.88,626.37 116.46,155.27 112.3,201.18 9.84,354.18 129.42,193.26 298.2,197.71 455.45,345.4 191.31,179.67 187.22,255.7 508.74,316.37 339.71,64.11 366.56,-5.93 540.45,260.39 28.83,44.15 138.35,208.27 178.09,234.47 53.51,35.29 267.21,56.77 355.79,56.77 38.79,-80.86 46.64,-152.11 72.27,-243.21 24.32,-86.45 60.05,-145.3 97.93,-217.89 55.44,-106.23 79.98,-100.26 45.1,-212.42 -44.46,-142.96 -54.39,-129.24 -142.5,-175.86 16.52,-70.92 42.38,-112.38 72.8,-169.88 -54.63,-74.56 15.64,-39.15 -97.07,-48.53 13.16,-158.14 133.22,-202.47 169.88,-339.76 0,0 -147.72,-337.32 37.85,-409.7 1.4,-0.54 7.45,-1.07 10.68,-2.85 -14.34,-172.39 -206.28,-300.53 -242.68,-436.83 -149.74,0 -231.31,28.26 -311.75,-52.27 -211.62,-211.83 -9.25,-207.11 -516.21,-211.97 -219.88,-2.1 -121.86,-69.73 -118.49,-221.12 -82.64,39.65 -191.81,41.77 -266.95,24.27 29.93,-56.56 56.16,-98.75 72.81,-169.07z"/>
  <path fill="#F0F0F0" d="M4594.37 3502.35c331.2,15.15 406.22,-19.22 415.64,-147.23l3.66 -1140.93 -324.56 -70.74c-135.5,11.62 -227.32,21.08 -325.54,95.36l-0.51 1196.35 231.31 67.19z"/>
  <path fill="#B3B4B4" d="M4689.11 2143.45l324.56 70.74 -3.66 1140.93c-9.42,128.01 -84.44,162.38 -415.64,147.23l95.62 44.61 -2.53 172.2c437.98,0 730.78,-267.58 847.05,-596.48 132.83,-375.79 -8.07,-662.66 -216.85,-944.66 -54.92,-74.19 -19.46,-67.57 -108.85,-76.65 -206.74,-95.47 -240.14,-138.03 -519.7,-161.07l0 203.15z"/>
  <path fill="#B3B4B4" d="M4480.77 3695.7c75.61,34.84 100.64,23.46 206.69,23.46l2.53 -172.2 -95.62 -44.61 -231.31 -67.19 0.51 -1196.35c98.22,-74.28 190.04,-83.74 325.54,-95.36l0 -203.15c-469.34,13.56 -826.03,331.52 -882.75,763.52 -66.77,508.59 279.13,908.66 674.41,991.88z"/>
  <path fill="#D61F26" d="M5035.16 3407.9c431.28,-221.06 456.7,-953.6 -0.03,-1156.32l0.03 1156.32z"/>
  <path fill="#D61F26" d="M4341.36 3404.01l1.68 -1146.86c-434.16,186.55 -435.49,957.89 -1.68,1146.86z"/>
 </g>
</svg>
